<svg width="341" height="311" viewBox="0 0 341 311" fill="none" xmlns="http://www.w3.org/2000/svg">
<path d="M86.9312 189.365L142.882 189.486L170.752 238.001L142.673 286.395L86.722 286.274L58.8514 237.759L86.9312 189.365Z" fill="#FF9900"/>
<path fill-rule="evenodd" clip-rule="evenodd" d="M67.1287 44.6012L30.9401 106.97L66.8591 169.495L138.967 169.651L175.155 107.282L139.236 44.7568L67.1287 44.6012ZM144.452 35.7681L61.952 35.59L20.5479 106.948L61.6436 178.484L144.143 178.662L185.547 107.304L144.452 35.7681Z" fill="#FF9900"/>
<path d="M195.952 112.945L278.452 113.123L319.547 184.659L278.143 256.017L195.644 255.839L154.548 184.303L195.952 112.945Z" fill="url(#paint0_linear_37_201)"/>
<defs>
<linearGradient id="paint0_linear_37_201" x1="195.952" y1="112.945" x2="278.143" y2="256.017" gradientUnits="userSpaceOnUse">
<stop/>
<stop offset="1" stop-color="#757575"/>
</linearGradient>
</defs>
</svg>
